<?xml version="1.0" encoding="UTF-8" standalone="no"?>
<!DOCTYPE svg PUBLIC "-//W3C//DTD SVG 1.1//EN" "http://www.w3.org/Graphics/SVG/1.1/DTD/svg11.dtd">
<svg xmlns="http://www.w3.org/2000/svg" version="1.1" viewBox="0.00 0.00 491.00 290.00">
<g stroke-width="2.00" fill="none" stroke-linecap="butt">
<path stroke="#8a80c8" vector-effect="non-scaling-stroke" d="
  M 351.82 40.61
  L 376.40 29.37
  Q 377.04 29.07 376.40 28.77
  Q 364.57 23.20 352.57 17.99
  Q 350.27 16.99 347.73 16.99
  Q 232.61 17.01 117.68 17.00
  A 0.67 0.67 0.0 0 0 117.01 17.67
  L 116.99 41.39
  A 0.61 0.61 0.0 0 0 117.60 42.00
  Q 233.65 42.00 349.58 42.00
  Q 350.06 42.00 350.39 41.80
  Q 350.76 41.58 351.03 41.24
  A 2.17 2.16 -83.4 0 1 351.82 40.61"
/>
<path stroke="#8a80c8" vector-effect="non-scaling-stroke" d="
  M 109.41 127.80
  C 114.93 145.70 131.88 154.60 149.49 157.61
  Q 174.89 161.96 201.00 158.00
  C 217.24 155.54 233.87 149.03 241.39 133.71
  C 246.40 123.49 247.23 109.63 244.97 98.22
  C 240.05 73.43 216.48 64.81 194.23 62.75
  C 172.98 60.77 152.08 61.26 132.83 69.14
  C 115.85 76.09 108.38 89.29 107.16 107.13
  Q 106.42 118.11 109.41 127.80"
/>
<path stroke="#8a80c8" vector-effect="non-scaling-stroke" d="
  M 291.75 135.23
  L 291.75 99.50
  Q 291.75 99.00 291.25 99.00
  L 262.75 99.00
  Q 262.25 99.00 262.25 99.50
  L 262.25 158.26
  A 0.48 0.47 90.0 0 0 262.72 158.74
  Q 291.52 158.78 320.24 158.73
  Q 333.90 158.71 340.15 157.41
  Q 350.70 155.23 359.46 149.73
  C 392.39 129.06 389.64 82.61 352.69 67.85
  Q 340.26 62.89 329.00 62.82
  Q 305.08 62.68 281.61 62.77
  A 1.40 1.39 18.1 0 0 280.52 63.32
  L 262.76 87.25
  Q 262.41 87.73 263.01 87.73
  Q 295.88 87.80 328.75 87.75
  C 337.64 87.74 347.12 91.79 352.26 99.16
  Q 355.48 103.78 355.78 109.00
  C 356.69 124.44 345.12 135.71 330.00 135.75
  Q 311.12 135.80 292.24 135.73
  Q 291.75 135.72 291.75 135.23"
/>
<path stroke="#8a80c8" vector-effect="non-scaling-stroke" d="
  M 374.98 182.59
  A 0.59 0.59 0.0 0 0 374.39 182.00
  L 117.59 182.00
  A 0.59 0.59 0.0 0 0 117.00 182.59
  L 117.00 214.41
  A 0.59 0.59 0.0 0 0 117.59 215.00
  L 374.39 215.00
  A 0.59 0.59 0.0 0 0 374.98 214.41
  L 374.98 182.59"
/>
<path stroke="#8a80c8" vector-effect="non-scaling-stroke" d="
  M 38.00 269.07
  C 46.75 269.49 60.69 268.05 61.97 256.74
  Q 63.65 241.85 48.82 239.47
  C 37.98 237.74 18.88 238.24 18.08 252.50
  C 17.36 265.42 27.01 268.55 38.00 269.07"
/>
<path stroke="#8a80c8" vector-effect="non-scaling-stroke" d="
  M 85.34 246.92
  Q 77.06 253.73 68.74 260.48
  C 67.20 261.73 65.40 263.16 65.27 265.00
  Q 65.01 268.68 69.26 268.76
  Q 83.54 269.03 97.84 269.02
  Q 98.43 269.02 98.78 268.55
  L 103.67 261.89
  A 0.26 0.26 0.0 0 0 103.46 261.48
  L 82.77 261.50
  Q 81.96 261.50 82.59 261.00
  Q 91.29 253.92 99.92 246.75
  C 103.04 244.16 103.82 239.09 98.24 239.06
  Q 84.39 238.98 70.47 239.00
  A 1.00 1.00 0.0 0 0 69.67 239.40
  L 64.62 246.07
  Q 64.08 246.79 64.98 246.78
  L 85.25 246.68
  Q 85.63 246.68 85.34 246.92"
/>
<path stroke="#8a80c8" vector-effect="non-scaling-stroke" d="
  M 134.54 261.44
  Q 127.83 261.64 123.76 261.43
  C 116.21 261.03 113.08 251.86 120.05 247.92
  Q 121.93 246.86 125.62 246.80
  Q 132.46 246.67 139.36 246.78
  Q 139.93 246.79 140.28 246.34
  L 145.52 239.56
  Q 145.86 239.11 145.30 239.10
  Q 128.34 238.75 121.28 239.10
  C 114.37 239.45 108.06 243.90 106.35 250.70
  Q 105.03 255.97 107.76 260.76
  Q 112.05 268.29 122.07 268.89
  Q 127.71 269.23 144.55 268.91
  Q 145.00 268.90 145.00 268.46
  L 145.00 251.00
  Q 145.00 250.49 144.50 250.49
  L 125.78 250.49
  A 1.14 1.12 -69.1 0 0 124.93 250.88
  L 120.17 256.35
  A 0.39 0.39 0.0 0 0 120.46 257.00
  L 134.50 257.00
  Q 134.99 257.00 135.00 257.50
  L 135.00 260.96
  Q 135.01 261.42 134.54 261.44"
/>
<path stroke="#8a80c8" vector-effect="non-scaling-stroke" d="
  M 178.68 258.33
  C 177.15 262.46 167.18 261.74 163.67 260.83
  C 160.45 260.00 159.75 258.68 159.76 255.49
  Q 159.79 247.54 159.74 239.51
  Q 159.73 239.00 159.22 239.00
  L 150.27 239.00
  Q 149.75 239.00 149.74 239.52
  Q 149.68 247.07 149.73 254.62
  C 149.77 260.80 151.60 265.36 157.50 267.25
  C 165.64 269.85 183.89 271.14 188.22 261.22
  Q 189.28 258.80 189.29 252.65
  Q 189.30 246.11 189.27 239.54
  Q 189.27 239.01 188.74 239.01
  L 179.52 239.00
  A 0.49 0.49 0.0 0 0 179.03 239.49
  Q 178.95 247.61 178.99 255.61
  Q 179.00 257.46 178.68 258.33"
/>
<path stroke="#8a80c8" vector-effect="non-scaling-stroke" d="
  M 228.31 259.28
  C 236.76 256.54 237.84 245.00 229.70 241.04
  Q 225.60 239.04 220.99 239.00
  Q 210.81 238.93 200.55 239.04
  A 1.10 1.09 18.0 0 0 199.70 239.47
  L 194.59 246.07
  Q 194.08 246.73 194.92 246.74
  Q 207.51 246.77 220.09 246.78
  C 226.65 246.79 225.95 254.03 220.25 254.01
  Q 207.53 253.96 194.75 254.02
  Q 194.25 254.02 194.25 254.52
  L 194.25 268.50
  Q 194.25 269.00 194.75 269.00
  L 203.76 269.00
  Q 204.27 269.00 204.27 268.49
  L 204.28 261.75
  Q 204.28 261.28 204.75 261.28
  L 216.72 261.27
  Q 217.32 261.27 217.71 261.73
  L 223.47 268.62
  A 1.08 1.07 -19.9 0 0 224.29 269.00
  L 236.29 269.00
  Q 237.11 269.00 236.54 268.41
  L 228.19 259.78
  Q 227.86 259.43 228.31 259.28"
/>
<path stroke="#8a80c8" vector-effect="non-scaling-stroke" d="
  M 268.27 260.96
  L 268.28 250.76
  Q 268.28 250.25 267.76 250.25
  L 258.50 250.24
  Q 258.00 250.24 258.00 250.75
  L 258.00 268.47
  Q 258.00 268.96 258.49 268.97
  Q 269.01 269.10 279.49 268.92
  Q 285.31 268.83 289.77 265.85
  C 295.46 262.06 298.36 254.67 295.49 248.26
  C 290.48 237.09 276.58 238.82 264.26 239.07
  Q 263.73 239.08 263.40 239.51
  L 258.40 246.12
  Q 257.96 246.70 258.68 246.71
  Q 267.59 246.82 276.48 246.77
  C 280.39 246.75 283.56 247.39 285.45 250.71
  C 288.40 255.91 284.48 260.80 278.98 261.40
  Q 276.22 261.70 268.71 261.42
  Q 268.27 261.40 268.27 260.96"
/>
<path stroke="#8a80c8" vector-effect="non-scaling-stroke" d="
  M 311.59 261.49
  A 0.33 0.33 0.0 0 1 311.26 261.16
  L 311.28 258.08
  A 0.33 0.33 0.0 0 1 311.61 257.75
  L 329.09 257.75
  A 0.33 0.33 0.0 0 0 329.35 257.62
  L 334.17 251.53
  A 0.33 0.33 0.0 0 0 333.91 251.00
  L 311.59 251.00
  A 0.33 0.33 0.0 0 1 311.26 250.67
  L 311.29 247.08
  A 0.33 0.33 0.0 0 1 311.62 246.75
  L 330.04 246.75
  A 0.33 0.33 0.0 0 0 330.30 246.62
  L 335.73 239.53
  A 0.33 0.33 0.0 0 0 335.47 239.00
  L 301.33 239.00
  A 0.33 0.33 0.0 0 0 301.00 239.33
  L 301.00 268.67
  A 0.33 0.33 0.0 0 0 301.33 269.00
  L 330.21 269.00
  A 0.33 0.33 0.0 0 0 330.47 268.87
  L 335.80 262.02
  A 0.33 0.33 0.0 0 0 335.54 261.49
  L 311.59 261.49"
/>
<path stroke="#8a80c8" vector-effect="non-scaling-stroke" d="
  M 349.83 246.76
  L 370.99 246.75
  Q 371.61 246.75 371.98 246.26
  L 377.07 239.60
  Q 377.47 239.08 376.81 239.07
  Q 363.14 238.83 349.53 239.11
  Q 341.24 239.28 339.08 245.34
  C 336.83 251.64 340.96 256.65 347.52 256.80
  Q 357.06 257.03 366.54 257.03
  A 1.97 1.96 2.3 0 1 368.50 259.15
  Q 368.31 261.55 365.74 261.54
  Q 354.82 261.51 343.83 261.48
  A 1.18 1.16 18.9 0 0 342.91 261.92
  L 337.88 268.35
  Q 337.44 268.91 338.16 268.92
  Q 352.60 269.19 366.97 268.87
  Q 376.17 268.66 377.93 261.61
  C 379.42 255.69 375.64 251.60 369.74 251.42
  Q 360.12 251.12 350.50 251.03
  Q 348.71 251.02 348.12 249.08
  A 1.79 1.79 0.0 0 1 349.83 246.76"
/>
<path stroke="#8a80c8" vector-effect="non-scaling-stroke" d="
  M 392.51 239.33
  A 0.33 0.33 0.0 0 0 392.18 239.00
  L 382.82 239.00
  A 0.33 0.33 0.0 0 0 382.49 239.33
  L 382.49 268.67
  A 0.33 0.33 0.0 0 0 382.82 269.00
  L 392.18 269.00
  A 0.33 0.33 0.0 0 0 392.51 268.67
  L 392.51 239.33"
/>
<path stroke="#8a80c8" vector-effect="non-scaling-stroke" d="
  M 425.80 261.44
  Q 418.99 261.64 415.01 261.42
  C 407.33 261.00 404.29 251.57 411.52 247.79
  Q 413.33 246.84 416.94 246.79
  Q 423.78 246.70 430.66 246.77
  Q 431.20 246.77 431.53 246.35
  L 436.71 239.64
  A 0.40 0.39 -71.1 0 0 436.40 239.00
  Q 424.45 238.95 413.26 239.23
  Q 404.76 239.45 400.14 245.21
  C 396.50 249.75 396.50 256.72 399.72 261.58
  Q 404.10 268.18 413.02 268.87
  Q 418.09 269.25 435.83 268.91
  Q 436.27 268.90 436.27 268.46
  L 436.28 251.01
  Q 436.28 250.49 435.76 250.49
  L 416.97 250.49
  Q 416.44 250.49 416.10 250.89
  L 411.44 256.39
  A 0.37 0.37 0.0 0 0 411.72 257.00
  L 425.75 257.00
  Q 426.25 257.00 426.25 257.50
  L 426.26 260.97
  Q 426.26 261.42 425.80 261.44"
/>
<path stroke="#8a80c8" vector-effect="non-scaling-stroke" d="
  M 451.14 253.22
  Q 458.35 259.63 465.44 266.16
  Q 467.63 268.17 469.07 268.66
  C 473.40 270.16 476.96 267.97 476.98 263.24
  Q 477.04 246.88 476.98 239.53
  Q 476.97 239.00 476.44 239.00
  L 468.24 239.00
  Q 467.73 239.00 467.73 239.51
  L 467.72 254.74
  A 0.31 0.30 21.3 0 1 467.21 254.96
  Q 459.97 248.31 452.71 241.78
  C 450.38 239.68 448.49 238.54 445.49 239.04
  Q 441.28 239.75 441.26 244.26
  Q 441.21 256.36 441.26 268.49
  Q 441.27 269.00 441.77 269.00
  L 450.00 269.00
  Q 450.51 269.00 450.51 268.50
  L 450.51 253.50
  Q 450.51 252.65 451.14 253.22"
/>
<path stroke="#8a80c8" vector-effect="non-scaling-stroke" d="
  M 347.1609 19.8283
  A 0.50 0.50 0.0 0 0 346.6618 19.3274
  L 120.4421 18.9326
  A 0.50 0.50 0.0 0 0 119.9413 19.4317
  L 119.9391 20.6717
  A 0.50 0.50 0.0 0 0 120.4382 21.1726
  L 346.6579 21.5674
  A 0.50 0.50 0.0 0 0 347.1587 21.0683
  L 347.1609 19.8283"
/>
<path stroke="#8a80c8" vector-effect="non-scaling-stroke" d="
  M 350.56 34.08
  L 349.09 37.30
  A 0.66 0.66 0.0 0 0 349.96 38.17
  L 369.30 29.33
  Q 369.89 29.06 369.30 28.79
  L 351.37 20.67
  Q 350.91 20.46 350.57 20.84
  Q 348.32 23.39 350.44 26.08
  A 0.99 0.98 44.2 0 1 350.46 27.29
  Q 348.20 30.34 350.47 33.32
  A 0.76 0.74 39.1 0 1 350.56 34.08"
/>
<path stroke="#8a80c8" vector-effect="non-scaling-stroke" d="
  M 347.00 25.37
  A 1.00 1.00 0.0 0 0 346.00 24.37
  L 120.96 24.37
  A 1.00 1.00 0.0 0 0 119.96 25.37
  L 119.96 27.69
  A 1.00 1.00 0.0 0 0 120.96 28.69
  L 346.00 28.69
  A 1.00 1.00 0.0 0 0 347.00 27.69
  L 347.00 25.37"
/>
<path stroke="#8a80c8" vector-effect="non-scaling-stroke" d="
  M 347.06 32.66
  A 0.97 0.97 0.0 0 0 346.09 31.69
  L 120.93 31.69
  A 0.97 0.97 0.0 0 0 119.96 32.66
  L 119.96 34.16
  A 0.97 0.97 0.0 0 0 120.93 35.13
  L 346.09 35.13
  A 0.97 0.97 0.0 0 0 347.06 34.16
  L 347.06 32.66"
/>
<path stroke="#8a80c8" vector-effect="non-scaling-stroke" d="
  M 346.44 38.29
  A 0.27 0.27 0.0 0 0 346.17 38.02
  L 120.51 38.02
  A 0.27 0.27 0.0 0 0 120.24 38.29
  L 120.24 38.69
  A 0.27 0.27 0.0 0 0 120.51 38.96
  L 346.17 38.96
  A 0.27 0.27 0.0 0 0 346.44 38.69
  L 346.44 38.29"
/>
<path stroke="#8a80c8" vector-effect="non-scaling-stroke" d="
  M 152.53 88.82
  C 143.01 92.30 135.96 101.10 136.62 111.46
  C 137.39 123.60 146.63 133.21 158.75 134.35
  Q 173.31 135.72 190.00 134.79
  Q 197.74 134.36 203.41 132.65
  C 213.81 129.51 218.15 118.07 217.18 108.06
  C 216.04 96.32 207.04 88.77 195.50 87.49
  Q 174.18 85.11 156.52 87.80
  Q 154.47 88.11 152.53 88.82"
/>
<path stroke="#8a80c8" vector-effect="non-scaling-stroke" d="
  M 319.50 202.72
  L 319.50 211.50
  Q 319.50 212.00 320.00 212.00
  L 330.74 212.00
  Q 331.22 212.00 331.22 211.51
  L 331.22 197.65
  Q 331.22 197.02 331.85 196.99
  L 333.55 196.91
  Q 334.22 196.88 334.22 197.55
  L 334.20 211.48
  Q 334.20 212.00 334.73 212.00
  L 345.00 212.00
  Q 345.49 212.00 345.49 211.50
  L 345.49 202.68
  Q 345.49 202.11 346.07 202.12
  L 347.96 202.17
  Q 348.49 202.18 348.49 202.71
  L 348.49 211.50
  Q 348.49 212.00 349.00 212.00
  L 359.46 212.00
  Q 360.16 212.00 360.16 211.29
  L 360.16 197.68
  Q 360.16 197.02 360.82 196.99
  L 362.52 196.92
  Q 363.16 196.89 363.16 197.53
  L 363.15 211.33
  Q 363.15 212.00 363.83 212.00
  L 371.38 211.99
  A 0.62 0.62 0.0 0 0 372.00 211.37
  L 372.00 185.75
  Q 372.00 185.00 371.25 185.00
  L 120.50 185.00
  Q 120.00 185.00 120.00 185.50
  L 120.00 211.50
  Q 120.00 212.00 120.50 212.00
  L 126.00 211.99
  Q 126.49 211.99 126.49 211.50
  L 126.49 197.60
  Q 126.49 196.94 127.15 196.95
  L 128.97 196.96
  Q 129.49 196.96 129.48 197.47
  L 129.48 211.49
  Q 129.48 212.00 129.99 212.00
  L 140.22 212.00
  Q 140.70 212.00 140.70 211.53
  L 140.71 202.68
  Q 140.72 202.08 141.32 202.11
  L 143.21 202.19
  Q 143.71 202.21 143.71 202.71
  L 143.69 211.47
  A 0.53 0.53 0.0 0 0 144.22 212.00
  L 154.95 212.00
  Q 155.39 212.00 155.39 211.55
  L 155.39 197.53
  Q 155.39 196.96 155.97 196.96
  L 157.79 196.94
  Q 158.39 196.93 158.39 197.54
  L 158.38 211.32
  Q 158.38 212.00 159.07 212.00
  L 169.50 212.00
  A 0.50 0.50 0.0 0 0 170.00 211.50
  L 170.00 202.73
  Q 170.00 202.09 170.64 202.11
  L 172.47 202.17
  A 0.55 0.54 -88.9 0 1 172.99 202.72
  L 173.00 211.50
  Q 173.00 211.99 173.50 212.00
  L 184.27 212.00
  Q 184.79 212.00 184.79 211.48
  L 184.79 197.55
  Q 184.80 196.89 185.45 196.92
  L 187.16 196.99
  Q 187.80 197.02 187.80 197.66
  L 187.78 211.51
  Q 187.78 212.00 188.27 212.00
  L 198.96 212.00
  Q 199.43 212.00 199.43 211.54
  L 199.44 202.72
  A 0.58 0.58 0.0 0 1 200.03 202.14
  L 201.78 202.14
  Q 202.43 202.15 202.43 202.79
  L 202.43 211.40
  Q 202.43 212.00 203.03 212.00
  L 213.59 212.00
  Q 214.17 212.00 214.17 211.41
  L 214.16 197.68
  Q 214.16 197.02 214.82 196.99
  L 216.53 196.92
  Q 217.17 196.89 217.17 197.53
  L 217.16 211.45
  A 0.55 0.54 -90.0 0 0 217.70 212.00
  L 228.25 212.00
  Q 228.76 212.00 228.76 211.49
  L 228.78 202.74
  A 0.63 0.63 0.0 0 1 229.42 202.11
  L 230.97 202.16
  Q 231.77 202.18 231.77 202.97
  L 231.76 211.50
  Q 231.76 212.00 232.26 212.00
  L 242.49 212.00
  Q 242.97 212.00 242.98 211.51
  L 243.13 197.57
  Q 243.14 197.02 243.68 197.00
  L 245.49 196.91
  Q 246.14 196.88 246.13 197.53
  C 246.07 200.29 245.33 206.20 247.37 208.25
  Q 247.71 208.59 247.43 208.97
  L 245.94 211.07
  A 0.59 0.58 -72.1 0 0 246.41 212.00
  L 257.26 212.00
  A 0.51 0.51 0.0 0 0 257.77 211.49
  L 257.78 203.26
  A 1.14 1.14 0.0 0 1 258.99 202.12
  L 260.25 202.19
  Q 260.78 202.22 260.78 202.75
  L 260.77 211.51
  Q 260.77 212.00 261.26 212.00
  L 272.00 212.00
  Q 272.49 212.00 272.49 211.50
  L 272.49 197.47
  Q 272.49 196.94 273.03 196.95
  L 274.98 196.96
  Q 275.49 196.97 275.49 197.48
  L 275.49 211.50
  Q 275.49 212.00 276.00 212.00
  L 286.74 212.00
  Q 287.22 212.00 287.22 211.51
  L 287.22 202.74
  Q 287.22 202.19 287.77 202.17
  L 289.49 202.09
  A 0.70 0.70 0.0 0 1 290.22 202.79
  L 290.21 211.48
  A 0.52 0.52 0.0 0 0 290.73 212.00
  L 301.25 212.00
  Q 301.86 212.00 301.86 211.39
  L 301.86 197.52
  Q 301.87 196.90 302.48 196.92
  L 304.19 196.99
  Q 304.86 197.02 304.86 197.69
  L 304.84 211.54
  A 0.46 0.45 -90.0 0 0 305.29 212.00
  L 316.00 212.00
  Q 316.51 212.00 316.51 211.50
  L 316.51 202.68
  Q 316.51 202.10 317.08 202.12
  L 318.97 202.17
  Q 319.50 202.18 319.50 202.72"
/>
<path stroke="#8a80c8" vector-effect="non-scaling-stroke" d="
  M 51.98 253.18
  A 6.35 6.35 0.0 0 0 45.63 246.83
  L 34.63 246.83
  A 6.35 6.35 0.0 0 0 28.28 253.18
  L 28.28 254.82
  A 6.35 6.35 0.0 0 0 34.63 261.17
  L 45.63 261.17
  A 6.35 6.35 0.0 0 0 51.98 254.82
  L 51.98 253.18"
/>
</g>
<path fill="#ffffff" d="
  M 0.00 0.00
  L 491.00 0.00
  L 491.00 290.00
  L 0.00 290.00
  L 0.00 0.00
  Z
  M 351.82 40.61
  L 376.40 29.37
  Q 377.04 29.07 376.40 28.77
  Q 364.57 23.20 352.57 17.99
  Q 350.27 16.99 347.73 16.99
  Q 232.61 17.01 117.68 17.00
  A 0.67 0.67 0.0 0 0 117.01 17.67
  L 116.99 41.39
  A 0.61 0.61 0.0 0 0 117.60 42.00
  Q 233.65 42.00 349.58 42.00
  Q 350.06 42.00 350.39 41.80
  Q 350.76 41.58 351.03 41.24
  A 2.17 2.16 -83.4 0 1 351.82 40.61
  Z
  M 109.41 127.80
  C 114.93 145.70 131.88 154.60 149.49 157.61
  Q 174.89 161.96 201.00 158.00
  C 217.24 155.54 233.87 149.03 241.39 133.71
  C 246.40 123.49 247.23 109.63 244.97 98.22
  C 240.05 73.43 216.48 64.81 194.23 62.75
  C 172.98 60.77 152.08 61.26 132.83 69.14
  C 115.85 76.09 108.38 89.29 107.16 107.13
  Q 106.42 118.11 109.41 127.80
  Z
  M 291.75 135.23
  L 291.75 99.50
  Q 291.75 99.00 291.25 99.00
  L 262.75 99.00
  Q 262.25 99.00 262.25 99.50
  L 262.25 158.26
  A 0.48 0.47 90.0 0 0 262.72 158.74
  Q 291.52 158.78 320.24 158.73
  Q 333.90 158.71 340.15 157.41
  Q 350.70 155.23 359.46 149.73
  C 392.39 129.06 389.64 82.61 352.69 67.85
  Q 340.26 62.89 329.00 62.82
  Q 305.08 62.68 281.61 62.77
  A 1.40 1.39 18.1 0 0 280.52 63.32
  L 262.76 87.25
  Q 262.41 87.73 263.01 87.73
  Q 295.88 87.80 328.75 87.75
  C 337.64 87.74 347.12 91.79 352.26 99.16
  Q 355.48 103.78 355.78 109.00
  C 356.69 124.44 345.12 135.71 330.00 135.75
  Q 311.12 135.80 292.24 135.73
  Q 291.75 135.72 291.75 135.23
  Z
  M 374.98 182.59
  A 0.59 0.59 0.0 0 0 374.39 182.00
  L 117.59 182.00
  A 0.59 0.59 0.0 0 0 117.00 182.59
  L 117.00 214.41
  A 0.59 0.59 0.0 0 0 117.59 215.00
  L 374.39 215.00
  A 0.59 0.59 0.0 0 0 374.98 214.41
  L 374.98 182.59
  Z
  M 38.00 269.07
  C 46.75 269.49 60.69 268.05 61.97 256.74
  Q 63.65 241.85 48.82 239.47
  C 37.98 237.74 18.88 238.24 18.08 252.50
  C 17.36 265.42 27.01 268.55 38.00 269.07
  Z
  M 85.34 246.92
  Q 77.06 253.73 68.74 260.48
  C 67.20 261.73 65.40 263.16 65.27 265.00
  Q 65.01 268.68 69.26 268.76
  Q 83.54 269.03 97.84 269.02
  Q 98.43 269.02 98.78 268.55
  L 103.67 261.89
  A 0.26 0.26 0.0 0 0 103.46 261.48
  L 82.77 261.50
  Q 81.96 261.50 82.59 261.00
  Q 91.29 253.92 99.92 246.75
  C 103.04 244.16 103.82 239.09 98.24 239.06
  Q 84.39 238.98 70.47 239.00
  A 1.00 1.00 0.0 0 0 69.67 239.40
  L 64.62 246.07
  Q 64.08 246.79 64.98 246.78
  L 85.25 246.68
  Q 85.63 246.68 85.34 246.92
  Z
  M 134.54 261.44
  Q 127.83 261.64 123.76 261.43
  C 116.21 261.03 113.08 251.86 120.05 247.92
  Q 121.93 246.86 125.62 246.80
  Q 132.46 246.67 139.36 246.78
  Q 139.93 246.79 140.28 246.34
  L 145.52 239.56
  Q 145.86 239.11 145.30 239.10
  Q 128.34 238.75 121.28 239.10
  C 114.37 239.45 108.06 243.90 106.35 250.70
  Q 105.03 255.97 107.76 260.76
  Q 112.05 268.29 122.07 268.89
  Q 127.71 269.23 144.55 268.91
  Q 145.00 268.90 145.00 268.46
  L 145.00 251.00
  Q 145.00 250.49 144.50 250.49
  L 125.78 250.49
  A 1.14 1.12 -69.1 0 0 124.93 250.88
  L 120.17 256.35
  A 0.39 0.39 0.0 0 0 120.46 257.00
  L 134.50 257.00
  Q 134.99 257.00 135.00 257.50
  L 135.00 260.96
  Q 135.01 261.42 134.54 261.44
  Z
  M 178.68 258.33
  C 177.15 262.46 167.18 261.74 163.67 260.83
  C 160.45 260.00 159.75 258.68 159.76 255.49
  Q 159.79 247.54 159.74 239.51
  Q 159.73 239.00 159.22 239.00
  L 150.27 239.00
  Q 149.75 239.00 149.74 239.52
  Q 149.68 247.07 149.73 254.62
  C 149.77 260.80 151.60 265.36 157.50 267.25
  C 165.64 269.85 183.89 271.14 188.22 261.22
  Q 189.28 258.80 189.29 252.65
  Q 189.30 246.11 189.27 239.54
  Q 189.27 239.01 188.74 239.01
  L 179.52 239.00
  A 0.49 0.49 0.0 0 0 179.03 239.49
  Q 178.95 247.61 178.99 255.61
  Q 179.00 257.46 178.68 258.33
  Z
  M 228.31 259.28
  C 236.76 256.54 237.84 245.00 229.70 241.04
  Q 225.60 239.04 220.99 239.00
  Q 210.81 238.93 200.55 239.04
  A 1.10 1.09 18.0 0 0 199.70 239.47
  L 194.59 246.07
  Q 194.08 246.73 194.92 246.74
  Q 207.51 246.77 220.09 246.78
  C 226.65 246.79 225.95 254.03 220.25 254.01
  Q 207.53 253.96 194.75 254.02
  Q 194.25 254.02 194.25 254.52
  L 194.25 268.50
  Q 194.25 269.00 194.75 269.00
  L 203.76 269.00
  Q 204.27 269.00 204.27 268.49
  L 204.28 261.75
  Q 204.28 261.28 204.75 261.28
  L 216.72 261.27
  Q 217.32 261.27 217.71 261.73
  L 223.47 268.62
  A 1.08 1.07 -19.9 0 0 224.29 269.00
  L 236.29 269.00
  Q 237.11 269.00 236.54 268.41
  L 228.19 259.78
  Q 227.86 259.43 228.31 259.28
  Z
  M 268.27 260.96
  L 268.28 250.76
  Q 268.28 250.25 267.76 250.25
  L 258.50 250.24
  Q 258.00 250.24 258.00 250.75
  L 258.00 268.47
  Q 258.00 268.96 258.49 268.97
  Q 269.01 269.10 279.49 268.92
  Q 285.31 268.83 289.77 265.85
  C 295.46 262.06 298.36 254.67 295.49 248.26
  C 290.48 237.09 276.58 238.82 264.26 239.07
  Q 263.73 239.08 263.40 239.51
  L 258.40 246.12
  Q 257.96 246.70 258.68 246.71
  Q 267.59 246.82 276.48 246.77
  C 280.39 246.75 283.56 247.39 285.45 250.71
  C 288.40 255.91 284.48 260.80 278.98 261.40
  Q 276.22 261.70 268.71 261.42
  Q 268.27 261.40 268.27 260.96
  Z
  M 311.59 261.49
  A 0.33 0.33 0.0 0 1 311.26 261.16
  L 311.28 258.08
  A 0.33 0.33 0.0 0 1 311.61 257.75
  L 329.09 257.75
  A 0.33 0.33 0.0 0 0 329.35 257.62
  L 334.17 251.53
  A 0.33 0.33 0.0 0 0 333.91 251.00
  L 311.59 251.00
  A 0.33 0.33 0.0 0 1 311.26 250.67
  L 311.29 247.08
  A 0.33 0.33 0.0 0 1 311.62 246.75
  L 330.04 246.75
  A 0.33 0.33 0.0 0 0 330.30 246.62
  L 335.73 239.53
  A 0.33 0.33 0.0 0 0 335.47 239.00
  L 301.33 239.00
  A 0.33 0.33 0.0 0 0 301.00 239.33
  L 301.00 268.67
  A 0.33 0.33 0.0 0 0 301.33 269.00
  L 330.21 269.00
  A 0.33 0.33 0.0 0 0 330.47 268.87
  L 335.80 262.02
  A 0.33 0.33 0.0 0 0 335.54 261.49
  L 311.59 261.49
  Z
  M 349.83 246.76
  L 370.99 246.75
  Q 371.61 246.75 371.98 246.26
  L 377.07 239.60
  Q 377.47 239.08 376.81 239.07
  Q 363.14 238.83 349.53 239.11
  Q 341.24 239.28 339.08 245.34
  C 336.83 251.64 340.96 256.65 347.52 256.80
  Q 357.06 257.03 366.54 257.03
  A 1.97 1.96 2.3 0 1 368.50 259.15
  Q 368.31 261.55 365.74 261.54
  Q 354.82 261.51 343.83 261.48
  A 1.18 1.16 18.9 0 0 342.91 261.92
  L 337.88 268.35
  Q 337.44 268.91 338.16 268.92
  Q 352.60 269.19 366.97 268.87
  Q 376.17 268.66 377.93 261.61
  C 379.42 255.69 375.64 251.60 369.74 251.42
  Q 360.12 251.12 350.50 251.03
  Q 348.71 251.02 348.12 249.08
  A 1.79 1.79 0.0 0 1 349.83 246.76
  Z
  M 392.51 239.33
  A 0.33 0.33 0.0 0 0 392.18 239.00
  L 382.82 239.00
  A 0.33 0.33 0.0 0 0 382.49 239.33
  L 382.49 268.67
  A 0.33 0.33 0.0 0 0 382.82 269.00
  L 392.18 269.00
  A 0.33 0.33 0.0 0 0 392.51 268.67
  L 392.51 239.33
  Z
  M 425.80 261.44
  Q 418.99 261.64 415.01 261.42
  C 407.33 261.00 404.29 251.57 411.52 247.79
  Q 413.33 246.84 416.94 246.79
  Q 423.78 246.70 430.66 246.77
  Q 431.20 246.77 431.53 246.35
  L 436.71 239.64
  A 0.40 0.39 -71.1 0 0 436.40 239.00
  Q 424.45 238.95 413.26 239.23
  Q 404.76 239.45 400.14 245.21
  C 396.50 249.75 396.50 256.72 399.72 261.58
  Q 404.10 268.18 413.02 268.87
  Q 418.09 269.25 435.83 268.91
  Q 436.27 268.90 436.27 268.46
  L 436.28 251.01
  Q 436.28 250.49 435.76 250.49
  L 416.97 250.49
  Q 416.44 250.49 416.10 250.89
  L 411.44 256.39
  A 0.37 0.37 0.0 0 0 411.72 257.00
  L 425.75 257.00
  Q 426.25 257.00 426.25 257.50
  L 426.26 260.97
  Q 426.26 261.42 425.80 261.44
  Z
  M 451.14 253.22
  Q 458.35 259.63 465.44 266.16
  Q 467.63 268.17 469.07 268.66
  C 473.40 270.16 476.96 267.97 476.98 263.24
  Q 477.04 246.88 476.98 239.53
  Q 476.97 239.00 476.44 239.00
  L 468.24 239.00
  Q 467.73 239.00 467.73 239.51
  L 467.72 254.74
  A 0.31 0.30 21.3 0 1 467.21 254.96
  Q 459.97 248.31 452.71 241.78
  C 450.38 239.68 448.49 238.54 445.49 239.04
  Q 441.28 239.75 441.26 244.26
  Q 441.21 256.36 441.26 268.49
  Q 441.27 269.00 441.77 269.00
  L 450.00 269.00
  Q 450.51 269.00 450.51 268.50
  L 450.51 253.50
  Q 450.51 252.65 451.14 253.22
  Z"
/>
<path fill="#150090" d="
  M 351.03 41.24
  Q 350.76 41.58 350.39 41.80
  Q 350.06 42.00 349.58 42.00
  Q 233.65 42.00 117.60 42.00
  A 0.61 0.61 0.0 0 1 116.99 41.39
  L 117.01 17.67
  A 0.67 0.67 0.0 0 1 117.68 17.00
  Q 232.61 17.01 347.73 16.99
  Q 350.27 16.99 352.57 17.99
  Q 364.57 23.20 376.40 28.77
  Q 377.04 29.07 376.40 29.37
  L 351.82 40.61
  A 2.17 2.16 -83.4 0 0 351.03 41.24
  Z
  M 347.1609 19.8283
  A 0.50 0.50 0.0 0 0 346.6618 19.3274
  L 120.4421 18.9326
  A 0.50 0.50 0.0 0 0 119.9413 19.4317
  L 119.9391 20.6717
  A 0.50 0.50 0.0 0 0 120.4382 21.1726
  L 346.6579 21.5674
  A 0.50 0.50 0.0 0 0 347.1587 21.0683
  L 347.1609 19.8283
  Z
  M 350.56 34.08
  L 349.09 37.30
  A 0.66 0.66 0.0 0 0 349.96 38.17
  L 369.30 29.33
  Q 369.89 29.06 369.30 28.79
  L 351.37 20.67
  Q 350.91 20.46 350.57 20.84
  Q 348.32 23.39 350.44 26.08
  A 0.99 0.98 44.2 0 1 350.46 27.29
  Q 348.20 30.34 350.47 33.32
  A 0.76 0.74 39.1 0 1 350.56 34.08
  Z
  M 347.00 25.37
  A 1.00 1.00 0.0 0 0 346.00 24.37
  L 120.96 24.37
  A 1.00 1.00 0.0 0 0 119.96 25.37
  L 119.96 27.69
  A 1.00 1.00 0.0 0 0 120.96 28.69
  L 346.00 28.69
  A 1.00 1.00 0.0 0 0 347.00 27.69
  L 347.00 25.37
  Z
  M 347.06 32.66
  A 0.97 0.97 0.0 0 0 346.09 31.69
  L 120.93 31.69
  A 0.97 0.97 0.0 0 0 119.96 32.66
  L 119.96 34.16
  A 0.97 0.97 0.0 0 0 120.93 35.13
  L 346.09 35.13
  A 0.97 0.97 0.0 0 0 347.06 34.16
  L 347.06 32.66
  Z
  M 346.44 38.29
  A 0.27 0.27 0.0 0 0 346.17 38.02
  L 120.51 38.02
  A 0.27 0.27 0.0 0 0 120.24 38.29
  L 120.24 38.69
  A 0.27 0.27 0.0 0 0 120.51 38.96
  L 346.17 38.96
  A 0.27 0.27 0.0 0 0 346.44 38.69
  L 346.44 38.29
  Z"
/>
<rect fill="#ffffff" x="-113.61" y="-1.12" transform="translate(233.55,20.25) rotate(0.1)" width="227.22" height="2.24" rx="0.50"/>
<path fill="#ffffff" d="
  M 350.47 33.32
  Q 348.20 30.34 350.46 27.29
  A 0.99 0.98 44.2 0 0 350.44 26.08
  Q 348.32 23.39 350.57 20.84
  Q 350.91 20.46 351.37 20.67
  L 369.30 28.79
  Q 369.89 29.06 369.30 29.33
  L 349.96 38.17
  A 0.66 0.66 0.0 0 1 349.09 37.30
  L 350.56 34.08
  A 0.76 0.74 39.1 0 0 350.47 33.32
  Z"
/>
<rect fill="#ffffff" x="119.96" y="24.37" width="227.04" height="4.32" rx="1.00"/>
<rect fill="#ffffff" x="119.96" y="31.69" width="227.10" height="3.44" rx="0.97"/>
<rect fill="#ffffff" x="120.24" y="38.02" width="226.20" height="0.94" rx="0.27"/>
<path fill="#150090" d="
  M 149.49 157.61
  C 131.88 154.60 114.93 145.70 109.41 127.80
  Q 106.42 118.11 107.16 107.13
  C 108.38 89.29 115.85 76.09 132.83 69.14
  C 152.08 61.26 172.98 60.77 194.23 62.75
  C 216.48 64.81 240.05 73.43 244.97 98.22
  C 247.23 109.63 246.40 123.49 241.39 133.71
  C 233.87 149.03 217.24 155.54 201.00 158.00
  Q 174.89 161.96 149.49 157.61
  Z
  M 152.53 88.82
  C 143.01 92.30 135.96 101.10 136.62 111.46
  C 137.39 123.60 146.63 133.21 158.75 134.35
  Q 173.31 135.72 190.00 134.79
  Q 197.74 134.36 203.41 132.65
  C 213.81 129.51 218.15 118.07 217.18 108.06
  C 216.04 96.32 207.04 88.77 195.50 87.49
  Q 174.18 85.11 156.52 87.80
  Q 154.47 88.11 152.53 88.82
  Z"
/>
<path fill="#150090" d="
  M 292.24 135.73
  Q 311.12 135.80 330.00 135.75
  C 345.12 135.71 356.69 124.44 355.78 109.00
  Q 355.48 103.78 352.26 99.16
  C 347.12 91.79 337.64 87.74 328.75 87.75
  Q 295.88 87.80 263.01 87.73
  Q 262.41 87.73 262.76 87.25
  L 280.52 63.32
  A 1.40 1.39 18.1 0 1 281.61 62.77
  Q 305.08 62.68 329.00 62.82
  Q 340.26 62.89 352.69 67.85
  C 389.64 82.61 392.39 129.06 359.46 149.73
  Q 350.70 155.23 340.15 157.41
  Q 333.90 158.71 320.24 158.73
  Q 291.52 158.78 262.72 158.74
  A 0.48 0.47 -90.0 0 1 262.25 158.26
  L 262.25 99.50
  Q 262.25 99.00 262.75 99.00
  L 291.25 99.00
  Q 291.75 99.00 291.75 99.50
  L 291.75 135.23
  Q 291.75 135.72 292.24 135.73
  Z"
/>
<path fill="#ffffff" d="
  M 152.53 88.82
  Q 154.47 88.11 156.52 87.80
  Q 174.18 85.11 195.50 87.49
  C 207.04 88.77 216.04 96.32 217.18 108.06
  C 218.15 118.07 213.81 129.51 203.41 132.65
  Q 197.74 134.36 190.00 134.79
  Q 173.31 135.72 158.75 134.35
  C 146.63 133.21 137.39 123.60 136.62 111.46
  C 135.96 101.10 143.01 92.30 152.53 88.82
  Z"
/>
<path fill="#150090" d="
  M 374.98 214.41
  A 0.59 0.59 0.0 0 1 374.39 215.00
  L 117.59 215.00
  A 0.59 0.59 0.0 0 1 117.00 214.41
  L 117.00 182.59
  A 0.59 0.59 0.0 0 1 117.59 182.00
  L 374.39 182.00
  A 0.59 0.59 0.0 0 1 374.98 182.59
  L 374.98 214.41
  Z
  M 319.50 202.72
  L 319.50 211.50
  Q 319.50 212.00 320.00 212.00
  L 330.74 212.00
  Q 331.22 212.00 331.22 211.51
  L 331.22 197.65
  Q 331.22 197.02 331.85 196.99
  L 333.55 196.91
  Q 334.22 196.88 334.22 197.55
  L 334.20 211.48
  Q 334.20 212.00 334.73 212.00
  L 345.00 212.00
  Q 345.49 212.00 345.49 211.50
  L 345.49 202.68
  Q 345.49 202.11 346.07 202.12
  L 347.96 202.17
  Q 348.49 202.18 348.49 202.71
  L 348.49 211.50
  Q 348.49 212.00 349.00 212.00
  L 359.46 212.00
  Q 360.16 212.00 360.16 211.29
  L 360.16 197.68
  Q 360.16 197.02 360.82 196.99
  L 362.52 196.92
  Q 363.16 196.89 363.16 197.53
  L 363.15 211.33
  Q 363.15 212.00 363.83 212.00
  L 371.38 211.99
  A 0.62 0.62 0.0 0 0 372.00 211.37
  L 372.00 185.75
  Q 372.00 185.00 371.25 185.00
  L 120.50 185.00
  Q 120.00 185.00 120.00 185.50
  L 120.00 211.50
  Q 120.00 212.00 120.50 212.00
  L 126.00 211.99
  Q 126.49 211.99 126.49 211.50
  L 126.49 197.60
  Q 126.49 196.94 127.15 196.95
  L 128.97 196.96
  Q 129.49 196.96 129.48 197.47
  L 129.48 211.49
  Q 129.48 212.00 129.99 212.00
  L 140.22 212.00
  Q 140.70 212.00 140.70 211.53
  L 140.71 202.68
  Q 140.72 202.08 141.32 202.11
  L 143.21 202.19
  Q 143.71 202.21 143.71 202.71
  L 143.69 211.47
  A 0.53 0.53 0.0 0 0 144.22 212.00
  L 154.95 212.00
  Q 155.39 212.00 155.39 211.55
  L 155.39 197.53
  Q 155.39 196.96 155.97 196.96
  L 157.79 196.94
  Q 158.39 196.93 158.39 197.54
  L 158.38 211.32
  Q 158.38 212.00 159.07 212.00
  L 169.50 212.00
  A 0.50 0.50 0.0 0 0 170.00 211.50
  L 170.00 202.73
  Q 170.00 202.09 170.64 202.11
  L 172.47 202.17
  A 0.55 0.54 -88.9 0 1 172.99 202.72
  L 173.00 211.50
  Q 173.00 211.99 173.50 212.00
  L 184.27 212.00
  Q 184.79 212.00 184.79 211.48
  L 184.79 197.55
  Q 184.80 196.89 185.45 196.92
  L 187.16 196.99
  Q 187.80 197.02 187.80 197.66
  L 187.78 211.51
  Q 187.78 212.00 188.27 212.00
  L 198.96 212.00
  Q 199.43 212.00 199.43 211.54
  L 199.44 202.72
  A 0.58 0.58 0.0 0 1 200.03 202.14
  L 201.78 202.14
  Q 202.43 202.15 202.43 202.79
  L 202.43 211.40
  Q 202.43 212.00 203.03 212.00
  L 213.59 212.00
  Q 214.17 212.00 214.17 211.41
  L 214.16 197.68
  Q 214.16 197.02 214.82 196.99
  L 216.53 196.92
  Q 217.17 196.89 217.17 197.53
  L 217.16 211.45
  A 0.55 0.54 -90.0 0 0 217.70 212.00
  L 228.25 212.00
  Q 228.76 212.00 228.76 211.49
  L 228.78 202.74
  A 0.63 0.63 0.0 0 1 229.42 202.11
  L 230.97 202.16
  Q 231.77 202.18 231.77 202.97
  L 231.76 211.50
  Q 231.76 212.00 232.26 212.00
  L 242.49 212.00
  Q 242.97 212.00 242.98 211.51
  L 243.13 197.57
  Q 243.14 197.02 243.68 197.00
  L 245.49 196.91
  Q 246.14 196.88 246.13 197.53
  C 246.07 200.29 245.33 206.20 247.37 208.25
  Q 247.71 208.59 247.43 208.97
  L 245.94 211.07
  A 0.59 0.58 -72.1 0 0 246.41 212.00
  L 257.26 212.00
  A 0.51 0.51 0.0 0 0 257.77 211.49
  L 257.78 203.26
  A 1.14 1.14 0.0 0 1 258.99 202.12
  L 260.25 202.19
  Q 260.78 202.22 260.78 202.75
  L 260.77 211.51
  Q 260.77 212.00 261.26 212.00
  L 272.00 212.00
  Q 272.49 212.00 272.49 211.50
  L 272.49 197.47
  Q 272.49 196.94 273.03 196.95
  L 274.98 196.96
  Q 275.49 196.97 275.49 197.48
  L 275.49 211.50
  Q 275.49 212.00 276.00 212.00
  L 286.74 212.00
  Q 287.22 212.00 287.22 211.51
  L 287.22 202.74
  Q 287.22 202.19 287.77 202.17
  L 289.49 202.09
  A 0.70 0.70 0.0 0 1 290.22 202.79
  L 290.21 211.48
  A 0.52 0.52 0.0 0 0 290.73 212.00
  L 301.25 212.00
  Q 301.86 212.00 301.86 211.39
  L 301.86 197.52
  Q 301.87 196.90 302.48 196.92
  L 304.19 196.99
  Q 304.86 197.02 304.86 197.69
  L 304.84 211.54
  A 0.46 0.45 -90.0 0 0 305.29 212.00
  L 316.00 212.00
  Q 316.51 212.00 316.51 211.50
  L 316.51 202.68
  Q 316.51 202.10 317.08 202.12
  L 318.97 202.17
  Q 319.50 202.18 319.50 202.72
  Z"
/>
<path fill="#ffffff" d="
  M 318.97 202.17
  L 317.08 202.12
  Q 316.51 202.10 316.51 202.68
  L 316.51 211.50
  Q 316.51 212.00 316.00 212.00
  L 305.29 212.00
  A 0.46 0.45 -90.0 0 1 304.84 211.54
  L 304.86 197.69
  Q 304.86 197.02 304.19 196.99
  L 302.48 196.92
  Q 301.87 196.90 301.86 197.52
  L 301.86 211.39
  Q 301.86 212.00 301.25 212.00
  L 290.73 212.00
  A 0.52 0.52 0.0 0 1 290.21 211.48
  L 290.22 202.79
  A 0.70 0.70 0.0 0 0 289.49 202.09
  L 287.77 202.17
  Q 287.22 202.19 287.22 202.74
  L 287.22 211.51
  Q 287.22 212.00 286.74 212.00
  L 276.00 212.00
  Q 275.49 212.00 275.49 211.50
  L 275.49 197.48
  Q 275.49 196.97 274.98 196.96
  L 273.03 196.95
  Q 272.49 196.94 272.49 197.47
  L 272.49 211.50
  Q 272.49 212.00 272.00 212.00
  L 261.26 212.00
  Q 260.77 212.00 260.77 211.51
  L 260.78 202.75
  Q 260.78 202.22 260.25 202.19
  L 258.99 202.12
  A 1.14 1.14 0.0 0 0 257.78 203.26
  L 257.77 211.49
  A 0.51 0.51 0.0 0 1 257.26 212.00
  L 246.41 212.00
  A 0.59 0.58 -72.1 0 1 245.94 211.07
  L 247.43 208.97
  Q 247.71 208.59 247.37 208.25
  C 245.33 206.20 246.07 200.29 246.13 197.53
  Q 246.14 196.88 245.49 196.91
  L 243.68 197.00
  Q 243.14 197.02 243.13 197.57
  L 242.98 211.51
  Q 242.97 212.00 242.49 212.00
  L 232.26 212.00
  Q 231.76 212.00 231.76 211.50
  L 231.77 202.97
  Q 231.77 202.18 230.97 202.16
  L 229.42 202.11
  A 0.63 0.63 0.0 0 0 228.78 202.74
  L 228.76 211.49
  Q 228.76 212.00 228.25 212.00
  L 217.70 212.00
  A 0.55 0.54 90.0 0 1 217.16 211.45
  L 217.17 197.53
  Q 217.17 196.89 216.53 196.92
  L 214.82 196.99
  Q 214.16 197.02 214.16 197.68
  L 214.17 211.41
  Q 214.17 212.00 213.59 212.00
  L 203.03 212.00
  Q 202.43 212.00 202.43 211.40
  L 202.43 202.79
  Q 202.43 202.15 201.78 202.14
  L 200.03 202.14
  A 0.58 0.58 0.0 0 0 199.44 202.72
  L 199.43 211.54
  Q 199.43 212.00 198.96 212.00
  L 188.27 212.00
  Q 187.78 212.00 187.78 211.51
  L 187.80 197.66
  Q 187.80 197.02 187.16 196.99
  L 185.45 196.92
  Q 184.80 196.89 184.79 197.55
  L 184.79 211.48
  Q 184.79 212.00 184.27 212.00
  L 173.50 212.00
  Q 173.00 211.99 173.00 211.50
  L 172.99 202.72
  A 0.55 0.54 -88.9 0 0 172.47 202.17
  L 170.64 202.11
  Q 170.00 202.09 170.00 202.73
  L 170.00 211.50
  A 0.50 0.50 0.0 0 1 169.50 212.00
  L 159.07 212.00
  Q 158.38 212.00 158.38 211.32
  L 158.39 197.54
  Q 158.39 196.93 157.79 196.94
  L 155.97 196.96
  Q 155.39 196.96 155.39 197.53
  L 155.39 211.55
  Q 155.39 212.00 154.95 212.00
  L 144.22 212.00
  A 0.53 0.53 0.0 0 1 143.69 211.47
  L 143.71 202.71
  Q 143.71 202.21 143.21 202.19
  L 141.32 202.11
  Q 140.72 202.08 140.71 202.68
  L 140.70 211.53
  Q 140.70 212.00 140.22 212.00
  L 129.99 212.00
  Q 129.48 212.00 129.48 211.49
  L 129.48 197.47
  Q 129.49 196.96 128.97 196.96
  L 127.15 196.95
  Q 126.49 196.94 126.49 197.60
  L 126.49 211.50
  Q 126.49 211.99 126.00 211.99
  L 120.50 212.00
  Q 120.00 212.00 120.00 211.50
  L 120.00 185.50
  Q 120.00 185.00 120.50 185.00
  L 371.25 185.00
  Q 372.00 185.00 372.00 185.75
  L 372.00 211.37
  A 0.62 0.62 0.0 0 1 371.38 211.99
  L 363.83 212.00
  Q 363.15 212.00 363.15 211.33
  L 363.16 197.53
  Q 363.16 196.89 362.52 196.92
  L 360.82 196.99
  Q 360.16 197.02 360.16 197.68
  L 360.16 211.29
  Q 360.16 212.00 359.46 212.00
  L 349.00 212.00
  Q 348.49 212.00 348.49 211.50
  L 348.49 202.71
  Q 348.49 202.18 347.96 202.17
  L 346.07 202.12
  Q 345.49 202.11 345.49 202.68
  L 345.49 211.50
  Q 345.49 212.00 345.00 212.00
  L 334.73 212.00
  Q 334.20 212.00 334.20 211.48
  L 334.22 197.55
  Q 334.22 196.88 333.55 196.91
  L 331.85 196.99
  Q 331.22 197.02 331.22 197.65
  L 331.22 211.51
  Q 331.22 212.00 330.74 212.00
  L 320.00 212.00
  Q 319.50 212.00 319.50 211.50
  L 319.50 202.72
  Q 319.50 202.18 318.97 202.17
  Z"
/>
<path fill="#150090" d="
  M 61.97 256.74
  C 60.69 268.05 46.75 269.49 38.00 269.07
  C 27.01 268.55 17.36 265.42 18.08 252.50
  C 18.88 238.24 37.98 237.74 48.82 239.47
  Q 63.65 241.85 61.97 256.74
  Z
  M 51.98 253.18
  A 6.35 6.35 0.0 0 0 45.63 246.83
  L 34.63 246.83
  A 6.35 6.35 0.0 0 0 28.28 253.18
  L 28.28 254.82
  A 6.35 6.35 0.0 0 0 34.63 261.17
  L 45.63 261.17
  A 6.35 6.35 0.0 0 0 51.98 254.82
  L 51.98 253.18
  Z"
/>
<path fill="#150090" d="
  M 85.25 246.68
  L 64.98 246.78
  Q 64.08 246.79 64.62 246.07
  L 69.67 239.40
  A 1.00 1.00 0.0 0 1 70.47 239.00
  Q 84.39 238.98 98.24 239.06
  C 103.82 239.09 103.04 244.16 99.92 246.75
  Q 91.29 253.92 82.59 261.00
  Q 81.96 261.50 82.77 261.50
  L 103.46 261.48
  A 0.26 0.26 0.0 0 1 103.67 261.89
  L 98.78 268.55
  Q 98.43 269.02 97.84 269.02
  Q 83.54 269.03 69.26 268.76
  Q 65.01 268.68 65.27 265.00
  C 65.40 263.16 67.20 261.73 68.74 260.48
  Q 77.06 253.73 85.34 246.92
  Q 85.63 246.68 85.25 246.68
  Z"
/>
<path fill="#150090" d="
  M 135.00 260.96
  L 135.00 257.50
  Q 134.99 257.00 134.50 257.00
  L 120.46 257.00
  A 0.39 0.39 0.0 0 1 120.17 256.35
  L 124.93 250.88
  A 1.14 1.12 -69.1 0 1 125.78 250.49
  L 144.50 250.49
  Q 145.00 250.49 145.00 251.00
  L 145.00 268.46
  Q 145.00 268.90 144.55 268.91
  Q 127.71 269.23 122.07 268.89
  Q 112.05 268.29 107.76 260.76
  Q 105.03 255.97 106.35 250.70
  C 108.06 243.90 114.37 239.45 121.28 239.10
  Q 128.34 238.75 145.30 239.10
  Q 145.86 239.11 145.52 239.56
  L 140.28 246.34
  Q 139.93 246.79 139.36 246.78
  Q 132.46 246.67 125.62 246.80
  Q 121.93 246.86 120.05 247.92
  C 113.08 251.86 116.21 261.03 123.76 261.43
  Q 127.83 261.64 134.54 261.44
  Q 135.01 261.42 135.00 260.96
  Z"
/>
<path fill="#150090" d="
  M 163.67 260.83
  C 167.18 261.74 177.15 262.46 178.68 258.33
  Q 179.00 257.46 178.99 255.61
  Q 178.95 247.61 179.03 239.49
  A 0.49 0.49 0.0 0 1 179.52 239.00
  L 188.74 239.01
  Q 189.27 239.01 189.27 239.54
  Q 189.30 246.11 189.29 252.65
  Q 189.28 258.80 188.22 261.22
  C 183.89 271.14 165.64 269.85 157.50 267.25
  C 151.60 265.36 149.77 260.80 149.73 254.62
  Q 149.68 247.07 149.74 239.52
  Q 149.75 239.00 150.27 239.00
  L 159.22 239.00
  Q 159.73 239.00 159.74 239.51
  Q 159.79 247.54 159.76 255.49
  C 159.75 258.68 160.45 260.00 163.67 260.83
  Z"
/>
<path fill="#150090" d="
  M 228.19 259.78
  L 236.54 268.41
  Q 237.11 269.00 236.29 269.00
  L 224.29 269.00
  A 1.08 1.07 -19.9 0 1 223.47 268.62
  L 217.71 261.73
  Q 217.32 261.27 216.72 261.27
  L 204.75 261.28
  Q 204.28 261.28 204.28 261.75
  L 204.27 268.49
  Q 204.27 269.00 203.76 269.00
  L 194.75 269.00
  Q 194.25 269.00 194.25 268.50
  L 194.25 254.52
  Q 194.25 254.02 194.75 254.02
  Q 207.53 253.96 220.25 254.01
  C 225.95 254.03 226.65 246.79 220.09 246.78
  Q 207.51 246.77 194.92 246.74
  Q 194.08 246.73 194.59 246.07
  L 199.70 239.47
  A 1.10 1.09 18.0 0 1 200.55 239.04
  Q 210.81 238.93 220.99 239.00
  Q 225.60 239.04 229.70 241.04
  C 237.84 245.00 236.76 256.54 228.31 259.28
  Q 227.86 259.43 228.19 259.78
  Z"
/>
<path fill="#150090" d="
  M 268.71 261.42
  Q 276.22 261.70 278.98 261.40
  C 284.48 260.80 288.40 255.91 285.45 250.71
  C 283.56 247.39 280.39 246.75 276.48 246.77
  Q 267.59 246.82 258.68 246.71
  Q 257.96 246.70 258.40 246.12
  L 263.40 239.51
  Q 263.73 239.08 264.26 239.07
  C 276.58 238.82 290.48 237.09 295.49 248.26
  C 298.36 254.67 295.46 262.06 289.77 265.85
  Q 285.31 268.83 279.49 268.92
  Q 269.01 269.10 258.49 268.97
  Q 258.00 268.96 258.00 268.47
  L 258.00 250.75
  Q 258.00 250.24 258.50 250.24
  L 267.76 250.25
  Q 268.28 250.25 268.28 250.76
  L 268.27 260.96
  Q 268.27 261.40 268.71 261.42
  Z"
/>
<path fill="#150090" d="
  M 311.59 261.49
  L 335.54 261.49
  A 0.33 0.33 0.0 0 1 335.80 262.02
  L 330.47 268.87
  A 0.33 0.33 0.0 0 1 330.21 269.00
  L 301.33 269.00
  A 0.33 0.33 0.0 0 1 301.00 268.67
  L 301.00 239.33
  A 0.33 0.33 0.0 0 1 301.33 239.00
  L 335.47 239.00
  A 0.33 0.33 0.0 0 1 335.73 239.53
  L 330.30 246.62
  A 0.33 0.33 0.0 0 1 330.04 246.75
  L 311.62 246.75
  A 0.33 0.33 0.0 0 0 311.29 247.08
  L 311.26 250.67
  A 0.33 0.33 0.0 0 0 311.59 251.00
  L 333.91 251.00
  A 0.33 0.33 0.0 0 1 334.17 251.53
  L 329.35 257.62
  A 0.33 0.33 0.0 0 1 329.09 257.75
  L 311.61 257.75
  A 0.33 0.33 0.0 0 0 311.28 258.08
  L 311.26 261.16
  A 0.33 0.33 0.0 0 0 311.59 261.49
  Z"
/>
<path fill="#150090" d="
  M 349.83 246.76
  A 1.79 1.79 0.0 0 0 348.12 249.08
  Q 348.71 251.02 350.50 251.03
  Q 360.12 251.12 369.74 251.42
  C 375.64 251.60 379.42 255.69 377.93 261.61
  Q 376.17 268.66 366.97 268.87
  Q 352.60 269.19 338.16 268.92
  Q 337.44 268.91 337.88 268.35
  L 342.91 261.92
  A 1.18 1.16 18.9 0 1 343.83 261.48
  Q 354.82 261.51 365.74 261.54
  Q 368.31 261.55 368.50 259.15
  A 1.97 1.96 2.3 0 0 366.54 257.03
  Q 357.06 257.03 347.52 256.80
  C 340.96 256.65 336.83 251.64 339.08 245.34
  Q 341.24 239.28 349.53 239.11
  Q 363.14 238.83 376.81 239.07
  Q 377.47 239.08 377.07 239.60
  L 371.98 246.26
  Q 371.61 246.75 370.99 246.75
  L 349.83 246.76
  Z"
/>
<rect fill="#150090" x="382.49" y="239.00" width="10.02" height="30.00" rx="0.33"/>
<path fill="#150090" d="
  M 426.26 260.97
  L 426.25 257.50
  Q 426.25 257.00 425.75 257.00
  L 411.72 257.00
  A 0.37 0.37 0.0 0 1 411.44 256.39
  L 416.10 250.89
  Q 416.44 250.49 416.97 250.49
  L 435.76 250.49
  Q 436.28 250.49 436.28 251.01
  L 436.27 268.46
  Q 436.27 268.90 435.83 268.91
  Q 418.09 269.25 413.02 268.87
  Q 404.10 268.18 399.72 261.58
  C 396.50 256.72 396.50 249.75 400.14 245.21
  Q 404.76 239.45 413.26 239.23
  Q 424.45 238.95 436.40 239.00
  A 0.40 0.39 -71.1 0 1 436.71 239.64
  L 431.53 246.35
  Q 431.20 246.77 430.66 246.77
  Q 423.78 246.70 416.94 246.79
  Q 413.33 246.84 411.52 247.79
  C 404.29 251.57 407.33 261.00 415.01 261.42
  Q 418.99 261.64 425.80 261.44
  Q 426.26 261.42 426.26 260.97
  Z"
/>
<path fill="#150090" d="
  M 450.51 253.50
  L 450.51 268.50
  Q 450.51 269.00 450.00 269.00
  L 441.77 269.00
  Q 441.27 269.00 441.26 268.49
  Q 441.21 256.36 441.26 244.26
  Q 441.28 239.75 445.49 239.04
  C 448.49 238.54 450.38 239.68 452.71 241.78
  Q 459.97 248.31 467.21 254.96
  A 0.31 0.30 21.3 0 0 467.72 254.74
  L 467.73 239.51
  Q 467.73 239.00 468.24 239.00
  L 476.44 239.00
  Q 476.97 239.00 476.98 239.53
  Q 477.04 246.88 476.98 263.24
  C 476.96 267.97 473.40 270.16 469.07 268.66
  Q 467.63 268.17 465.44 266.16
  Q 458.35 259.63 451.14 253.22
  Q 450.51 252.65 450.51 253.50
  Z"
/>
<rect fill="#ffffff" x="28.28" y="246.83" width="23.70" height="14.34" rx="6.35"/>
</svg>
