<?xml version="1.0" encoding="utf-8"?>
<!-- Generator: Adobe Illustrator 26.3.1, SVG Export Plug-In . SVG Version: 6.00 Build 0)  -->
<svg version="1.1" id="katman_1" xmlns="http://www.w3.org/2000/svg" xmlns:xlink="http://www.w3.org/1999/xlink" x="0px" y="0px"
	 viewBox="0 0 1000 1000" style="enable-background:new 0 0 1000 1000;" xml:space="preserve">
<style type="text/css">
	.st0{fill:none;stroke:#3C3C3B;stroke-width:0.75;stroke-miterlimit:10;}
	.st1{fill:none;stroke:#3C3C3B;stroke-miterlimit:10;}
	.st2{fill:#3C3C3B;}
</style>
<g>
	<path class="st0" d="M511.8,236.53h7.96h255.77l2.29,7.4l-4.13,6.93l3.91,10.08l-4.06,9.45l4.28,10.08l-4.28,7.4l3.47,10.08H519.54
		h-7.52 M511.8,270.08v0.32 M519.77,236.53h-7.96l-350.44-0.47v34.02v17.33v10.55h350.66h7.52 M519.54,270.08v0.32 M512,287.45
		l261.52,0.44 M161.35,287.45h358.2 M773.53,270.47L510,270.08 M161.36,270.08H511.8 M511.8,250.44l261.93,0.44 M161.56,250.44
		h358.2 M777.01,297.66l66.21-30.52l-67.71-30.85"/>
	<path class="st1" d="M811.51,719.49v42.57v1.88 M734.1,763.94v-44.45 M655.67,763.94v-44.45 M577.1,763.94v-44.45 M498.57,719.49
		v6.66v0.31v5.86v5.37v4.78v5.37v6.17v8.27v1.65 M421.12,763.94v-44.45 M342.68,763.94v-44.45 M263.97,763.94v-44.45 M186.66,719.49
		v42.21v2.24 M772.29,763.94v-30.45 M694.84,763.94v-30.45 M616.45,763.94v-30.45 M537.83,733.49v23.61v6.84 M460.25,763.94v-30.45
		 M381.72,763.94v-30.45 M303.06,763.94v-30.45 M224.67,763.94v-30.45 M161.35,683.54v80.4h681.87v-80.4H161.35z M498.7,753.83
		l-0.13,0.18v-6.17l3.09,3.09L498.7,753.83z"/>
	<line class="st1" x1="161.35" y1="763.94" x2="161.35" y2="683.54"/>
	<line class="st1" x1="843.22" y1="763.94" x2="843.22" y2="683.54"/>
	<path class="st2" d="M317.74,358.19c62.19,0,108.91,10.54,140.13,31.61c31.22,21.08,46.84,54.33,46.84,99.78
		c0,45.7-15.55,79.09-46.65,100.16c-31.1,21.08-77.87,31.61-140.32,31.61c-62.71,0-109.55-10.53-140.52-31.61
		c-30.97-21.07-46.46-54.46-46.46-100.16c0-45.44,15.55-78.7,46.65-99.78C208.51,368.73,255.29,358.19,317.74,358.19z
		 M317.74,555.08c19.88,0,36.71-0.82,50.47-2.47c11.49-1.38,24.42-3.71,34.3-10.1c17.45-11.29,24.65-33.66,24.65-53.57
		c0-21.03-9.58-40.25-27.71-51.32c-11.93-7.29-25.54-10.29-39.31-11.53c-14.09-1.27-28.26-1.63-42.4-1.63
		c-19.88,0-36.71,0.83-50.47,2.47c-33.78,4.04-63.5,36.41-56.63,71.73c5.58,28.66,27.34,50.43,56.63,53.95
		C281.03,554.26,297.86,555.08,317.74,555.08z"/>
	<path class="st2" d="M869.23,486.44c0,18.65-3.86,35.96-11.57,51.93c-7.72,15.97-18.34,29.77-31.86,41.39
		c-13.53,11.63-29.65,20.76-48.36,27.4c-18.72,6.65-39.07,9.96-61.06,9.96H546.47V457.32h78.89v98.33h97.4
		c10.87,0,20.92-1.47,30.15-4.41c6.71-2.14,13.24-5.07,19.03-9.1c15.68-10.93,25.91-33.41,25.91-52.24c0-8.94-1.89-17.25-5.69-24.91
		c-3.79-7.67-9.1-14.24-15.93-19.74c-6.83-5.49-14.79-9.83-23.9-13.03c-9.1-3.19-18.96-4.79-29.58-4.79H546.47l50.06-66.68h119.85
		c22.25,0,42.73,3.07,61.44,9.2c18.71,6.13,34.83,14.76,48.36,25.87c13.52,11.11,24.08,24.4,31.67,39.86
		C865.44,451.13,869.23,468.05,869.23,486.44z"/>
</g>
</svg>
